<svg id="visual" viewBox="0 0 960 300" width="960" height="300" xmlns="http://www.w3.org/2000/svg" xmlns:xlink="http://www.w3.org/1999/xlink" version="1.1"><rect x="0" y="0" width="960" height="300" fill="#555755"></rect><path d="M0 69L22.8 73.5C45.7 78 91.3 87 137 89.3C182.7 91.7 228.3 87.3 274 89.5C319.7 91.7 365.3 100.3 411.2 96.3C457 92.3 503 75.7 548.8 77.3C594.7 79 640.3 99 686 98.7C731.7 98.3 777.3 77.7 823 66.8C868.7 56 914.3 55 937.2 54.5L960 54L960 301L937.2 301C914.3 301 868.7 301 823 301C777.3 301 731.7 301 686 301C640.3 301 594.7 301 548.8 301C503 301 457 301 411.2 301C365.3 301 319.7 301 274 301C228.3 301 182.7 301 137 301C91.3 301 45.7 301 22.8 301L0 301Z" fill="#f78981"></path><path d="M0 93L22.8 91.3C45.7 89.7 91.3 86.3 137 90.3C182.7 94.3 228.3 105.7 274 111.3C319.7 117 365.3 117 411.2 120.7C457 124.3 503 131.7 548.8 135.7C594.7 139.7 640.3 140.3 686 137.2C731.7 134 777.3 127 823 119.7C868.7 112.3 914.3 104.7 937.2 100.8L960 97L960 301L937.2 301C914.3 301 868.7 301 823 301C777.3 301 731.7 301 686 301C640.3 301 594.7 301 548.8 301C503 301 457 301 411.2 301C365.3 301 319.7 301 274 301C228.3 301 182.7 301 137 301C91.3 301 45.7 301 22.8 301L0 301Z" fill="#f38074"></path><path d="M0 165L22.8 167.7C45.7 170.3 91.3 175.7 137 169.2C182.7 162.7 228.3 144.3 274 141.8C319.7 139.3 365.3 152.7 411.2 154.7C457 156.7 503 147.3 548.8 146.2C594.7 145 640.3 152 686 152.8C731.7 153.7 777.3 148.3 823 143.2C868.7 138 914.3 133 937.2 130.5L960 128L960 301L937.2 301C914.3 301 868.7 301 823 301C777.3 301 731.7 301 686 301C640.3 301 594.7 301 548.8 301C503 301 457 301 411.2 301C365.3 301 319.7 301 274 301C228.3 301 182.7 301 137 301C91.3 301 45.7 301 22.8 301L0 301Z" fill="#ee7766"></path><path d="M0 188L22.8 187.7C45.7 187.3 91.3 186.7 137 188.2C182.7 189.7 228.3 193.3 274 188.7C319.7 184 365.3 171 411.2 169.7C457 168.3 503 178.7 548.8 179.5C594.7 180.3 640.3 171.7 686 170.3C731.7 169 777.3 175 823 182.5C868.7 190 914.3 199 937.2 203.5L960 208L960 301L937.2 301C914.3 301 868.7 301 823 301C777.3 301 731.7 301 686 301C640.3 301 594.7 301 548.8 301C503 301 457 301 411.2 301C365.3 301 319.7 301 274 301C228.3 301 182.7 301 137 301C91.3 301 45.7 301 22.8 301L0 301Z" fill="#e96f58"></path><path d="M0 200L22.8 200.8C45.7 201.7 91.3 203.3 137 204.2C182.7 205 228.3 205 274 204C319.7 203 365.3 201 411.2 199.8C457 198.7 503 198.3 548.8 200.5C594.7 202.7 640.3 207.3 686 211.8C731.7 216.3 777.3 220.7 823 226.2C868.7 231.7 914.3 238.3 937.2 241.7L960 245L960 301L937.2 301C914.3 301 868.7 301 823 301C777.3 301 731.7 301 686 301C640.3 301 594.7 301 548.8 301C503 301 457 301 411.2 301C365.3 301 319.7 301 274 301C228.3 301 182.7 301 137 301C91.3 301 45.7 301 22.8 301L0 301Z" fill="#e46749"></path><path d="M0 266L22.8 267C45.7 268 91.3 270 137 267.5C182.7 265 228.3 258 274 257.7C319.7 257.3 365.3 263.7 411.2 265C457 266.3 503 262.7 548.8 256.8C594.7 251 640.3 243 686 244C731.7 245 777.3 255 823 258.8C868.7 262.7 914.3 260.3 937.2 259.2L960 258L960 301L937.2 301C914.3 301 868.7 301 823 301C777.3 301 731.7 301 686 301C640.3 301 594.7 301 548.8 301C503 301 457 301 411.2 301C365.3 301 319.7 301 274 301C228.3 301 182.7 301 137 301C91.3 301 45.7 301 22.8 301L0 301Z" fill="#dd603a"></path></svg>