<svg id="visual" viewBox="0 0 960 300" width="960" height="300" xmlns="http://www.w3.org/2000/svg" xmlns:xlink="http://www.w3.org/1999/xlink" version="1.1"><rect x="0" y="0" width="960" height="300" fill="#202731"></rect><path d="M0 186L22.8 191.3C45.7 196.7 91.3 207.3 137 214.3C182.7 221.3 228.3 224.7 274 227.7C319.7 230.7 365.3 233.3 411.2 230.8C457 228.3 503 220.7 548.8 218.7C594.7 216.7 640.3 220.3 686 220.8C731.7 221.3 777.3 218.7 823 213.8C868.7 209 914.3 202 937.2 198.5L960 195L960 0L937.2 0C914.3 0 868.7 0 823 0C777.3 0 731.7 0 686 0C640.3 0 594.7 0 548.8 0C503 0 457 0 411.2 0C365.3 0 319.7 0 274 0C228.3 0 182.7 0 137 0C91.3 0 45.7 0 22.8 0L0 0Z" fill="#fa7268"></path><path d="M0 197L22.8 190.7C45.7 184.3 91.3 171.7 137 166.8C182.7 162 228.3 165 274 162.7C319.7 160.3 365.3 152.7 411.2 156C457 159.3 503 173.7 548.8 172.8C594.7 172 640.3 156 686 156C731.7 156 777.3 172 823 182C868.7 192 914.3 196 937.2 198L960 200L960 0L937.2 0C914.3 0 868.7 0 823 0C777.3 0 731.7 0 686 0C640.3 0 594.7 0 548.8 0C503 0 457 0 411.2 0C365.3 0 319.7 0 274 0C228.3 0 182.7 0 137 0C91.3 0 45.7 0 22.8 0L0 0Z" fill="#f26b56"></path><path d="M0 130L22.8 132.3C45.7 134.7 91.3 139.3 137 131.7C182.7 124 228.3 104 274 102.3C319.7 100.7 365.3 117.3 411.2 118C457 118.7 503 103.3 548.8 99.5C594.7 95.7 640.3 103.3 686 104.2C731.7 105 777.3 99 823 94.2C868.7 89.3 914.3 85.7 937.2 83.8L960 82L960 0L937.2 0C914.3 0 868.7 0 823 0C777.3 0 731.7 0 686 0C640.3 0 594.7 0 548.8 0C503 0 457 0 411.2 0C365.3 0 319.7 0 274 0C228.3 0 182.7 0 137 0C91.3 0 45.7 0 22.8 0L0 0Z" fill="#e86544"></path><path d="M0 84L22.8 77.7C45.7 71.3 91.3 58.7 137 54.2C182.7 49.7 228.3 53.3 274 58.3C319.7 63.3 365.3 69.7 411.2 68.2C457 66.7 503 57.3 548.8 51C594.7 44.7 640.3 41.3 686 42.8C731.7 44.3 777.3 50.7 823 57.3C868.7 64 914.3 71 937.2 74.5L960 78L960 0L937.2 0C914.3 0 868.7 0 823 0C777.3 0 731.7 0 686 0C640.3 0 594.7 0 548.8 0C503 0 457 0 411.2 0C365.3 0 319.7 0 274 0C228.3 0 182.7 0 137 0C91.3 0 45.7 0 22.8 0L0 0Z" fill="#dd6031"></path></svg>